{"title":"R. Kelly, Jay-Z, Boo &amp; Gotti - Fiesta (Remix) [2000/VOB]","uid":10689923,"size":225536000,"categoryP":"video","categoryS":"music_videos","magnet":"?xt=urn:btih:f2cd5c1749098fcf641ef81808c98bde11dff0b1&amp;dn=R.+Kelly%2C+Jay-Z%2C+Boo+%26amp%3B+Gotti+-+Fiesta+%28Remix%29+%5B2000%2FVOB%5D&amp;tr=udp%3A%2F%2Ftracker.openbittorrent.com%3A80&amp;tr=udp%3A%2F%2Fopen.demonii.com%3A1337&amp;tr=udp%3A%2F%2Ftracker.coppersurfer.tk%3A6969&amp;tr=udp%3A%2F%2Fexodus.desync.com%3A6969","seeders":1,"leechers":0,"uploader":"torrent-cracker","files":-1,"time":1407108121,"description":"Taken from The R in R&amp;B (The Video Collection).\n\nPreview: &lt;a href=&quot;\nhttp://moevideo.net/framevideo/48880.4faad2265a2952ffce08db3fd249&quot; rel=&quot;nofollow&quot; target=&quot;_NEW&quot;&gt;\nhttp://moevideo.net/framevideo/48880.4faad2265a2952ffce08db3fd249&lt;/a&gt;\n\nGeneral\nComplete name                            : R. Kelly - Fiesta (Remix)VTS_01_1.VOB\nFormat                                   : MPEG-PS\nFile size                                : 215 MiB\nDuration                                 : 4mn 25s\nOverall bit rate mode                    : Variable\nOverall bit rate                         : 6 796 Kbps\n\nVideo\nID                                       : 224 (0xE0)\nFormat                                   : MPEG Video\nFormat version                           : Version 2\nFormat profile                           : Main@Main\nFormat settings, BVOP                    : Yes\nFormat settings, Matrix                  : Default\nFormat settings, GOP                     : M=3, N=13\nDuration                                 : 4mn 25s\nBit rate mode                            : Variable\nBit rate                                 : 6 468 Kbps\nMaximum bit rate                         : 9 200 Kbps\nWidth                                    : 720 pixels\nHeight                                   : 480 pixels\nDisplay aspect ratio                     : 4:3\nFrame rate                               : 29.970 fps\nStandard                                 : NTSC\nColor space                              : YUV\nChroma subsampling                       : 4:2:0\nBit depth                                : 8 bits\nScan type                                : Interlaced\nScan order                               : Top Field First\nCompression mode                         : Lossy\nBits/(Pixel*Frame)                       : 0.625\nTime code of first frame                 : 01:40:43;28\nTime code source                         : Group of pictures header\nStream size                              : 205 MiB (95%)\nColor primaries                          : BT.601 NTSC\nTransfer characteristics                 : BT.601\nMatrix coefficients                      : BT.601\n\nAudio\nID                                       : 189 (0xBD)-128 (0x80)\nFormat                                   : AC-3\nFormat/Info                              : Audio Coding 3\nMode extension                           : CM (complete main)\nFormat settings, Endianness              : Big\nMuxing mode                              : DVD-Video\nDuration                                 : 4mn 25s\nBit rate mode                            : Constant\nBit rate                                 : 192 Kbps\nChannel(s)                               : 2 channels\nChannel positions                        : Front: L R\nSampling rate                            : 48.0 KHz\nBit depth                                : 16 bits\nCompression mode                         : Lossy\nDelay relative to video                  : 20ms\nStream size                              : 6.07 MiB (3%)","torrent":{"xt":"urn:btih:f2cd5c1749098fcf641ef81808c98bde11dff0b1","amp;dn":"R.+Kelly%2C+Jay-Z%2C+Boo+%26amp%3B+Gotti+-+Fiesta+%28Remix%29+%5B2000%2FVOB%5D","amp;tr":["udp%3A%2F%2Ftracker.openbittorrent.com%3A80","udp%3A%2F%2Fopen.demonii.com%3A1337","udp%3A%2F%2Ftracker.coppersurfer.tk%3A6969","udp%3A%2F%2Fexodus.desync.com%3A6969"],"infoHash":"f2cd5c1749098fcf641ef81808c98bde11dff0b1","infoHashBuffer":{"type":"Buffer","data":[242,205,92,23,73,9,143,207,100,30,248,24,8,201,139,222,17,223,240,177]},"announce":[],"urlList":[]}}